<?xml version="1.0" standalone="no"?>
<!DOCTYPE svg PUBLIC "-//W3C//DTD SVG 20010904//EN"
 "http://www.w3.org/TR/2001/REC-SVG-20010904/DTD/svg10.dtd">
<svg version="1.0" xmlns="http://www.w3.org/2000/svg"
 width="260.000000pt" height="260.000000pt" viewBox="0 0 260.000000 260.000000"
 preserveAspectRatio="xMidYMid meet">
<metadata>
Created by potrace 1.11, written by Peter Selinger 2001-2013
</metadata>
<g transform="translate(0.000000,260.000000) scale(0.100000,-0.100000)"
fill="#000000" stroke="none">
<path d="M0 1845 l0 -755 237 2 237 3 187 570 c186 567 202 613 275 795 l38
95 27 -90 c46 -150 71 -288 210 -1137 73 -449 134 -816 136 -814 2 1 48 133
103 291 56 159 106 293 113 297 7 4 243 8 525 8 l512 0 0 745 0 745 -1300 0
-1300 0 0 -755z"/>
<path d="M772 1397 c-83 -256 -152 -472 -152 -481 0 -14 -31 -16 -310 -16
l-310 0 0 -450 0 -450 620 0 c341 0 620 3 620 6 0 3 -7 36 -15 73 -8 36 -76
444 -151 906 -74 462 -138 848 -142 858 -5 13 -58 -134 -160 -446z"/>
<path d="M1685 903 c-22 -58 -245 -711 -245 -719 0 -5 -13 -43 -30 -84 -16
-41 -29 -81 -30 -87 0 -10 128 -13 610 -13 l610 0 0 460 0 460 -454 0 c-423 0
-454 -1 -461 -17z"/>
</g>
</svg>
