<?xml version="1.0" encoding="utf-8"?>
<!-- Generator: Adobe Illustrator 19.2.1, SVG Export Plug-In . SVG Version: 6.00 Build 0)  -->
<svg version="1.1" id="Layer_1" xmlns="http://www.w3.org/2000/svg" xmlns:xlink="http://www.w3.org/1999/xlink" x="0px" y="0px"
	 viewBox="0 0 145.3 37.8" style="enable-background:new 0 0 145.3 37.8;" xml:space="preserve">
<style type="text/css">
	.st0{fill:#0995CC;}
	.st1{fill:#FF6C2C;}
</style>
<title>logo-orange</title>
<path class="st0" d="M7.7,37.3H0V0.7C1.3,0.3,2.7,0.1,4.1,0c3.1,0,3.7,0.6,3.7,4.1V37.3z"/>
<path class="st0" d="M34.3,8.8c6.8,0,9.5,4.3,9.5,12.8c0,1.4,0,2.9-0.2,4.3H30.9c0.2,3.8,1.6,5.9,4.7,5.9s4.6-1,5.7-1
	c1.3,0,1.9,1.2,1.8,5c-2.8,1.4-5.9,2.1-9.1,2c-8.2,0-11.1-6.3-11.1-14.6C22.9,15.1,26.5,8.8,34.3,8.8 M34,14.6
	c-0.8,0-1.6,0.3-2.3,0.7c-0.6,1.9-0.9,4-0.9,6l6.1-0.3C37,17,36.2,14.6,34,14.6"/>
<path class="st0" d="M57.4,8.8c2.2,0,4.3,0.4,6.4,1.2c0.1,0.5,0.1,1,0,1.6c-0.1,2.8-1,4.1-2.3,4.1c-1,0-2.4-0.8-4.7-0.8
	c-0.9,0-1.8,0.2-2.7,0.4c-0.2,0.5-0.3,1-0.3,1.5c0,1.5,1.2,2,4.8,3.3c4.5,1.5,6.1,3.8,6.1,8.2c0,6-4.2,9.6-10.5,9.6
	c-2.5,0-5-0.5-7.3-1.7c-0.1-0.6-0.2-1.3-0.1-2c0.2-2,0.8-3.6,1.9-3.6s2.3,1.1,5.7,1.1c1,0.1,2.1-0.2,3-0.6c0.3-0.5,0.4-1.1,0.4-1.7
	c0-1.6-1.5-2-4.4-3.1C48.9,24.6,47,21.8,47,18C47,12.6,50.6,8.8,57.4,8.8"/>
<path class="st0" d="M78.7,8.8c6.8,0,9.4,4.3,9.4,12.8c0,1.4,0,2.9-0.2,4.3H75.2c0.2,3.8,1.6,5.9,4.7,5.9s4.6-1,5.7-1
	c1.3,0,1.9,1.2,1.8,5c-2.8,1.4-5.9,2.1-9.1,1.9c-8.2,0-11.1-6.3-11.1-14.6C67.3,15,70.8,8.8,78.7,8.8 M78.4,14.6
	c-0.8,0-1.6,0.3-2.3,0.7c-0.6,1.9-0.9,4-0.9,6l6.1-0.3C81.4,17,80.6,14.7,78.4,14.6"/>
<path class="st0" d="M92.4,9.5c1.2-0.5,2.5-0.7,3.7-0.7c2.3,0,2.7,1.2,3.2,4.6c1.4-2.8,4.2-4.6,7.3-4.6c0.3,1.5,0.4,3.1,0.3,4.7
	c-0.1,1.9-0.3,2.9-1.6,2.9c-2-0.1-4,0.7-5.4,2.1v18.8h-7.6V9.5z"/>
<path class="st0" d="M20.5,9.2c2.2,0,1,2.2,1,2.2l-5.6,11.8l0,0L21.7,35c0,0,1.2,2.2-1,2.2h-4.3c-1.1,0-1.7-0.9-2.8-3.2L8.5,23.5
	l-0.1-0.2l0.1-0.2l5-10.6c1.1-2.3,1.7-3.3,2.8-3.2L20.5,9.2z"/>
<path class="st1" d="M133.2,9.2c-2.2,0-1,2.2-1,2.2l5.6,11.8l0,0L132.3,35c0,0-1.2,2.2,1,2.2h4.1c1.1,0,1.7-0.9,2.8-3.2l5.1-10.5
	l0.1-0.2l-0.1-0.2l-5-10.6c-1.1-2.3-1.7-3.3-2.8-3.2L133.2,9.2z"/>
<path class="st0" d="M121.6,9.2c-2.2,0-1,2.2-1,2.2l5.6,11.8l0,0L120.6,35c0,0-1.2,2.2,1,2.2h4.1c1.1,0,1.7-0.9,2.8-3.2l5.1-10.5
	l0.1-0.2l-0.1-0.2l-5-10.6c-1.1-2.3-1.7-3.3-2.8-3.2L121.6,9.2z"/>
</svg>
